<?xml version="1.0" encoding="UTF-8"?>
<svg id="fl-legend-discrete-color-0-svg-screenshot-container" xmlns="http://www.w3.org/2000/svg" version="1.1" viewBox="0 0 2346.9 1306.7">
  <!-- Generator: Adobe Illustrator 29.8.0, SVG Export Plug-In . SVG Version: 2.1.1 Build 160)  -->
  <defs>
    <style>
      .st0, .st1 {
        fill: none;
        stroke: #eee;
        stroke-width: 2px;
      }

      .st2 {
        font-size: 33.3px;
      }

      .st2, .st3, .st4, .st5, .st6, .st7, .st8, .st9, .st10 {
        isolation: isolate;
      }

      .st2, .st3, .st8 {
        font-family: ArialMT, Arial;
      }

      .st2, .st8 {
        fill: #4a4a4a;
      }

      .st3 {
        fill: #333;
        font-size: 40px;
      }

      .st5, .st6, .st7 {
        fill-opacity: .9;
      }

      .st5, .st6, .st7, .st9, .st10 {
        opacity: .9;
      }

      .st5, .st11 {
        fill: #1d1d1b;
      }

      .st6 {
        fill: #e30613;
      }

      .st12 {
        font-family: MyriadPro-Regular, 'Myriad Pro';
        font-size: 12px;
      }

      .st7, .st10 {
        fill: #fcbf1b;
      }

      .st8 {
        font-size: 34.2px;
      }

      .st9 {
        fill: #e73926;
      }

      .st1 {
        stroke-linecap: square;
      }
    </style>
  </defs>
  <g>
    <line class="st1" x1="140.2" y1="1221.1" x2="2026.1" y2="1221.1"/>
    <line class="st0" x1="434.1" y1="1214.1" x2="434.1" y2="1231.2"/>
    <text id="texte" class="st8" transform="translate(396.1 1262.3)"><tspan x="0" y="0">2003</tspan></text>
    <text id="texte1" data-name="texte" class="st8" transform="translate(1045.1 1268.4)"><tspan x="0" y="0">2014</tspan></text>
    <text id="texte2" data-name="texte" class="st8" transform="translate(1673.7 1268.9)"><tspan x="0" y="0">2024</tspan></text>
    <line class="st0" x1="1083.1" y1="1220.1" x2="1083.1" y2="1237.2"/>
    <text class="st12" transform="translate(540 540)"><tspan x="0" y="0">texte</tspan></text>
    <line class="st0" x1="1711.8" y1="1220.6" x2="1711.8" y2="1237.7"/>
    <line class="st1" x1="140.2" y1="1221.1" x2="140.2" y2="73.7"/>
    <line class="st0" x1="124.7" y1="1217.8" x2="108.1" y2="1217.8"/>
    <text id="texte3" data-name="texte" class="st2" transform="translate(81.2 1228.7)"><tspan x="0" y="0">0</tspan></text>
    <line class="st0" x1="147.7" y1="700.8" x2="131" y2="700.8"/>
    <line class="st0" x1="152.5" y1="179.9" x2="135.9" y2="179.9"/>
    <line class="st0" x1="138.4" y1="958.2" x2="121.8" y2="958.2"/>
    <text id="texte4" data-name="texte" class="st2" transform="translate(53.5 190.9)"><tspan x="0" y="0">2000</tspan></text>
    <text id="texte5" data-name="texte" class="st2" transform="translate(48.7 711.8)"><tspan x="0" y="0">1000</tspan></text>
    <text id="texte6" data-name="texte" class="st2" transform="translate(57.9 969.1)"><tspan x="0" y="0">500</tspan></text>
    <line class="st0" x1="147.7" y1="437.3" x2="131" y2="437.3"/>
    <text id="texte7" data-name="texte" class="st2" transform="translate(48.7 448.3)"><tspan x="0" y="0">1500</tspan></text>
  </g>
  <g id="barres">
    <g id="barre-5">
      <g id="_x35_">
        <path id="barre-5-2003-1905" class="st5" d="M214,1221.1h145.8V227.5h-145.8v993.6h0Z"/>
        <path id="barre-5-2014-1741" class="st5" d="M842.6,1221.1h145.8V313h-145.8v908h0Z"/>
        <path id="barre-5-2024-1697" class="st5" d="M1471.2,1221.1h145.8V362.1h-145.8v859h0Z"/>
      </g>
    </g>
    <g id="barre-Entre">
      <g id="Entre">
        <path id="barre-Entre-2003-146" class="st7" d="M381.6,1221.1h145.8v-76.2h-145.8v76.2h0Z"/>
        <path id="barre-Entre-2014-170" class="st7" d="M1010.2,1221.1h145.8v-88.7h-145.8v88.7Z"/>
        <path id="barre-Entre-2024-226" class="st7" d="M1638.9,1221.1h145.8v-117.9h-145.8v117.9Z"/>
      </g>
    </g>
    <g id="barre-10">
      <g id="_x31_0">
        <path id="barre-10-2003-74" class="st6" d="M549.3,1221.1h145.8v-38.6h-145.8v38.6Z"/>
        <path id="barre-10-2014-106" class="st6" d="M1177.9,1221.1h145.8v-55.3h-145.8v55.3Z"/>
        <path id="barre-10-2024-128" class="st6" d="M1806.5,1221.1h145.8v-66.8h-145.8v66.8Z"/>
      </g>
    </g>
  </g>
  <g id="bouton-5" class="st4">
    <text id="texte8" data-name="texte" class="st3" transform="translate(1930.5 109.4)"><tspan x="0" y="0">5 screens or less</tspan></text>
    <rect class="st11" x="1830.8" y="64.6" width="77.3" height="51.2" rx="3" ry="3"/>
  </g>
  <g id="bouton-Entre" class="st4">
    <text id="texte9" data-name="texte" class="st3" transform="translate(1932.2 185.4)"><tspan x="0" y="0">6 to 10 screens</tspan></text>
    <rect class="st10" x="1830.8" y="140.7" width="77.3" height="51.2" rx="3" ry="3"/>
  </g>
  <g id="bouton-10" class="st4">
    <text id="texte10" data-name="texte" class="st3" transform="translate(1932.2 256.5)"><tspan x="0" y="0">more than 10 screens</tspan></text>
    <rect class="st9" x="1830.8" y="216.9" width="77.3" height="51.2" rx="3" ry="3"/>
  </g>
</svg>