<?xml version="1.0" encoding="UTF-8"?>
<svg id="fl-legend-discrete-color-0-svg-screenshot-container" xmlns="http://www.w3.org/2000/svg" version="1.1" viewBox="0 0 1960 1009.72">
  <!-- Generator: Adobe Illustrator 29.8.0, SVG Export Plug-In . SVG Version: 2.1.1 Build 160)  -->
  <defs>
    <style>
      .st0 {
        font-size: 28.8px;
      }

      .st0, .st1, .st2, .st3, .st4, .st5, .st6, .st7, .st8, .st9, .st10, .st11, .st12 {
        isolation: isolate;
      }

      .st0, .st1, .st2, .st3, .st6, .st7, .st9, .st11, .st12 {
        font-family: ArialMT, Arial;
      }

      .st0, .st1, .st2, .st3, .st6, .st9, .st11, .st12 {
        fill: #4a4a4a;
      }

      .st13, .st14 {
        fill: none;
        stroke: #eee;
        stroke-width: 2px;
      }

      .st1 {
        font-size: 29.55px;
      }

      .st2 {
        font-size: 26.94px;
      }

      .st3 {
        font-size: 29.59px;
      }

      .st4 {
        fill: #9852d9;
      }

      .st4, .st5, .st10 {
        opacity: .9;
      }

      .st5 {
        fill: #2197ff;
      }

      .st6 {
        font-size: 27.69px;
      }

      .st7 {
        fill: #333;
        font-size: 40px;
      }

      .st9 {
        font-size: 29.17px;
      }

      .st10, .st15 {
        fill: #135ae1;
      }

      .st11 {
        font-size: 31.07px;
      }

      .st14 {
        stroke-linecap: square;
      }

      .st12 {
        font-size: 28.11px;
      }
    </style>
  </defs>
  <g>
    <g>
      <line class="st13" x1="73.12" y1="964.11" x2="1959" y2="964.11"/>
      <line class="st13" x1="73.12" y1="727.5" x2="1959" y2="727.5"/>
      <line class="st13" x1="73.12" y1="490.89" x2="1959" y2="490.89"/>
      <line class="st13" x1="73.12" y1="254.29" x2="1959" y2="254.29"/>
      <line class="st13" x1="73.12" y1="17.68" x2="1959" y2="17.68"/>
    </g>
    <g>
      <g>
        <line class="st14" x1="73.12" y1="964.11" x2="1959" y2="964.11"/>
        <g id="nombrex">
          <g>
            <line class="st13" x1="381.78" y1="956.73" x2="381.78" y2="971.5"/>
            <g class="st8">
              <g class="st8">
                <g class="st8">
                  <text class="st1" transform="translate(344.55 998.39) scale(1.13 1)"><tspan x="0" y="0">2003</tspan></text>
                </g>
              </g>
            </g>
          </g>
          <g>
            <line class="st13" x1="1590.66" y1="954.4" x2="1590.66" y2="969.19"/>
            <g class="st8">
              <g class="st8">
                <g class="st8">
                  <text class="st3" transform="translate(985.7 999.01)"><tspan x="0" y="0">2014</tspan></text>
                </g>
              </g>
            </g>
          </g>
          <g>
            <line class="st13" x1="1661.61" y1="955.83" x2="1661.61" y2="971.37"/>
            <g class="st8">
              <g class="st8">
                <g class="st8">
                  <text class="st11" transform="translate(1627.05 999.63)"><tspan x="0" y="0">2024</tspan></text>
                </g>
              </g>
            </g>
          </g>
        </g>
      </g>
      <g>
        <line class="st14" x1="73.12" y1="964.11" x2="73.12" y2="17.68"/>
        <g>
          <g>
            <line class="st13" x1="70.66" y1="964.18" x2="56.26" y2="964.18"/>
            <g class="st8">
              <g class="st8">
                <g class="st8">
                  <text class="st0" transform="translate(33.04 973.69)"><tspan x="0" y="0">0</tspan></text>
                </g>
              </g>
            </g>
          </g>
          <g>
            <line class="st13" x1="87.63" y1="14.84" x2="73.58" y2="14.84"/>
            <g class="st8">
              <g class="st8">
                <g class="st8">
                  <text class="st12" transform="translate(4 24.12)"><tspan x="0" y="0">2000</tspan></text>
                </g>
              </g>
            </g>
          </g>
          <g>
            <line class="st13" x1="86.78" y1="490.15" x2="72.19" y2="490.15"/>
            <g class="st8">
              <g class="st8">
                <g class="st8">
                  <text class="st9" transform="translate(0 499.79)"><tspan x="0" y="0">1000</tspan></text>
                </g>
              </g>
            </g>
          </g>
          <g>
            <line class="st13" x1="79.85" y1="727.59" x2="66.38" y2="727.59"/>
            <g class="st8">
              <g class="st8">
                <g class="st8">
                  <text class="st2" transform="translate(14.68 736.49)"><tspan x="0" y="0">500</tspan></text>
                </g>
              </g>
            </g>
          </g>
          <g>
            <line class="st13" x1="85.03" y1="255.21" x2="71.19" y2="255.21"/>
            <g class="st8">
              <g class="st8">
                <g class="st8">
                  <text class="st6" transform="translate(2.66 264.34)"><tspan x="0" y="0">1500</tspan></text>
                </g>
              </g>
            </g>
          </g>
        </g>
      </g>
    </g>
  </g>
  <g id="barres">
    <g id="barre-5">
      <g id="_5">
        <g>
          <path id="barre-5-2003-1905" class="st10" d="M146.91,964.11h145.77V62.64h-145.77v901.47h0Z"/>
          <path id="barre-5-2014-1741" class="st10" d="M775.54,964.11h145.77v-69.09h-145.77v69.09h0Z"/>
          <path id="barre-5-2024-1697" class="st10" d="M1404.17,964.11h145.77v-35.02h-145.77v35.02Z"/>
        </g>
      </g>
    </g>
    <g id="barre-Entre">
      <g id="Entre">
        <g>
          <path id="barre-Entre-2003-146" class="st5" d="M314.55,964.11h145.77V140.24h-145.77v823.87h0Z"/>
          <path id="barre-Entre-2014-170" class="st5" d="M943.17,964.11h145.77v-80.45h-145.77v80.45h0Z"/>
          <path id="barre-Entre-2024-226" class="st5" d="M1571.8,964.11h145.77v-50.16h-145.77v50.16Z"/>
        </g>
      </g>
    </g>
    <g id="barre-10">
      <g>
        <path id="barre-10-2003-74" class="st4" d="M482.18,964.11h145.77V161.06h-145.77v803.05h0Z"/>
        <path id="barre-10-2014-106" class="st4" d="M1110.81,964.11h145.77v-106.95h-145.77v106.95Z"/>
        <path id="barre-10-2024-128" class="st4" d="M1739.44,964.11h145.77v-60.57h-145.77v60.57Z"/>
      </g>
    </g>
  </g>
  <g id="bouton-5" class="st8">
    <g class="st8">
      <g class="st8">
        <text class="st7" transform="translate(1531.97 85.12)"><tspan x="0" y="0">5 screens or less</tspan></text>
      </g>
    </g>
    <rect class="st15" x="1432.29" y="40.33" width="77.35" height="51.19" rx="3" ry="3"/>
  </g>
  <g id="bouton-Entre" class="st8">
    <g class="st8">
      <g class="st8">
        <text class="st7" transform="translate(1533.65 161.2)"><tspan x="0" y="0">6 to 10 screens</tspan></text>
      </g>
    </g>
    <rect class="st5" x="1432.29" y="116.5" width="77.35" height="51.19" rx="3" ry="3"/>
  </g>
  <g id="bouton-10" class="st8">
    <g class="st8">
      <g class="st8">
        <text class="st7" transform="translate(1533.65 232.29)"><tspan x="0" y="0">more than 10 screens</tspan></text>
      </g>
    </g>
    <rect class="st4" x="1432.29" y="192.67" width="77.35" height="51.19" rx="3" ry="3"/>
  </g>
</svg>